<svg xmlns="http://www.w3.org/2000/svg" xmlns:xlink="http://www.w3.org/1999/xlink" viewBox="0 0 500 372.61"><defs><style>.cls-1,.cls-17{fill:none;}.cls-2{fill:#ebebeb;}.cls-3{fill:#f0f0f0;}.cls-4{fill:#e0e0e0;}.cls-5{fill:#f5f5f5;}.cls-6{fill:#407bff;}.cls-10,.cls-11,.cls-13,.cls-18,.cls-19,.cls-7,.cls-9{fill:#fff;}.cls-20,.cls-7{opacity:0.3;}.cls-10,.cls-11,.cls-14,.cls-18,.cls-19,.cls-20,.cls-21,.cls-7,.cls-9{isolation:isolate;}.cls-8{fill:#263238;}.cls-14,.cls-21,.cls-9{opacity:0.2;}.cls-10{opacity:0.5;}.cls-11{opacity:0.6;}.cls-12{clip-path:url(#clip-path);}.cls-15{fill:#ebb376;}.cls-16{fill:#d58745;}.cls-17{stroke:#263238;stroke-linecap:round;stroke-linejoin:round;stroke-width:0.5px;}.cls-18{opacity:0.7;}.cls-19{opacity:0.1;}.cls-22{fill:#de5753;}</style><clipPath id="clip-path" transform="translate(0 -54.95)"><path class="cls-1" d="M228.7,162.81a39.85,39.85,0,1,1-79.7,0c0-22,16-47.58,38-47.58S228.7,140.81,228.7,162.81Z"/></clipPath></defs><g id="Background_Complete" data-name="Background Complete"><rect class="cls-2" y="327.45" width="500" height="0.25"/><rect class="cls-2" x="416.78" y="343.54" width="33.12" height="0.25"/><rect class="cls-2" x="322.53" y="346.26" width="8.69" height="0.25"/><rect class="cls-2" x="396.59" y="334.26" width="19.19" height="0.25"/><rect class="cls-2" x="52.46" y="335.94" width="43.19" height="0.25"/><rect class="cls-2" x="104.56" y="335.94" width="6.33" height="0.25"/><rect class="cls-2" x="131.47" y="340.16" width="93.68" height="0.25"/><path class="cls-2" d="M237,337.8H43.91a5.71,5.71,0,0,1-5.7-5.71V60.66A5.71,5.71,0,0,1,43.91,55H237a5.71,5.71,0,0,1,5.71,5.71V332.09A5.71,5.71,0,0,1,237,337.8ZM43.91,55.2a5.46,5.46,0,0,0-5.45,5.46V332.09a5.46,5.46,0,0,0,5.45,5.46H237a5.47,5.47,0,0,0,5.46-5.46V60.66A5.47,5.47,0,0,0,237,55.2Z" transform="translate(0 -54.95)"/><path class="cls-2" d="M453.31,337.8H260.21a5.72,5.72,0,0,1-5.71-5.71V60.66A5.72,5.72,0,0,1,260.21,55h193.1A5.71,5.71,0,0,1,459,60.66V332.09A5.71,5.71,0,0,1,453.31,337.8ZM260.21,55.2a5.47,5.47,0,0,0-5.46,5.46V332.09a5.47,5.47,0,0,0,5.46,5.46h193.1a5.47,5.47,0,0,0,5.46-5.46V60.66a5.47,5.47,0,0,0-5.46-5.46Z" transform="translate(0 -54.95)"/><rect class="cls-3" x="269.04" y="159.31" width="176.29" height="223.23" transform="translate(714.36 486.91) rotate(180)"/><rect class="cls-4" x="275.27" y="167.45" width="163.83" height="47.74" transform="translate(714.36 327.68) rotate(180)"/><rect class="cls-2" x="429.79" y="175.18" width="9.31" height="40.01" transform="translate(868.88 335.41) rotate(180)"/><rect class="cls-2" x="384.79" y="175.18" width="9.31" height="40.01" transform="translate(778.88 335.41) rotate(180)"/><rect class="cls-2" x="330.24" y="174.68" width="9.31" height="40.01" transform="translate(631.85 388.46) rotate(-170.22)"/><rect class="cls-2" x="418.26" y="180.45" width="9.31" height="34.74" transform="translate(845.82 340.68) rotate(180)"/><rect class="cls-2" x="396.87" y="180.45" width="9.31" height="34.74" transform="translate(803.04 340.68) rotate(180)"/><rect class="cls-2" x="342.87" y="180.45" width="9.31" height="34.74" transform="translate(695.05 340.68) rotate(180)"/><rect class="cls-2" x="368.69" y="179.85" width="9.31" height="34.74" transform="translate(695.01 415.78) rotate(-167.47)"/><rect class="cls-2" x="410.21" y="173.19" width="4.65" height="41.99" transform="translate(825.07 333.43) rotate(180)"/><rect class="cls-2" x="354.86" y="173.19" width="4.65" height="41.99" transform="translate(714.36 333.43) rotate(180)"/><rect class="cls-4" x="275.27" y="167.79" width="163.83" height="47.74"/><rect class="cls-2" x="275.27" y="175.52" width="9.31" height="40.01"/><rect class="cls-2" x="320.27" y="175.52" width="9.31" height="40.01"/><rect class="cls-2" x="374.82" y="229.97" width="9.31" height="40.01" transform="translate(-36.94 13.13) rotate(-9.78)"/><rect class="cls-2" x="286.8" y="180.79" width="9.31" height="34.74"/><rect class="cls-2" x="308.19" y="180.79" width="9.31" height="34.74"/><rect class="cls-2" x="362.18" y="180.79" width="9.31" height="34.74"/><rect class="cls-2" x="336.37" y="235.15" width="9.31" height="34.74" transform="translate(-46.65 25.03) rotate(-12.53)"/><rect class="cls-2" x="299.5" y="173.53" width="4.65" height="41.99"/><rect class="cls-2" x="354.86" y="173.53" width="4.65" height="41.99"/><rect class="cls-2" x="429.79" y="230.47" width="9.31" height="40.01" transform="translate(868.88 446) rotate(180)"/><rect class="cls-2" x="418.26" y="235.74" width="9.31" height="34.74" transform="translate(845.82 451.27) rotate(180)"/><rect class="cls-2" x="396.87" y="235.74" width="9.31" height="34.74" transform="translate(803.04 451.27) rotate(180)"/><rect class="cls-2" x="410.21" y="228.49" width="4.65" height="41.99" transform="translate(825.07 444.01) rotate(180)"/><rect class="cls-4" x="275.27" y="278.04" width="163.83" height="47.74" transform="translate(714.36 548.86) rotate(180)"/><rect class="cls-2" x="335.76" y="285.77" width="9.31" height="40.01" transform="translate(680.82 556.59) rotate(180)"/><rect class="cls-2" x="281.21" y="285.27" width="9.31" height="40.01" transform="translate(515.72 599.7) rotate(-170.22)"/><rect class="cls-2" x="369.23" y="291.04" width="9.31" height="34.74" transform="translate(747.76 561.86) rotate(180)"/><rect class="cls-2" x="347.84" y="291.04" width="9.31" height="34.74" transform="translate(704.98 561.86) rotate(180)"/><rect class="cls-2" x="293.84" y="291.04" width="9.31" height="34.74" transform="translate(596.99 561.86) rotate(180)"/><rect class="cls-2" x="319.66" y="290.44" width="9.31" height="34.74" transform="translate(574.13 623.68) rotate(-167.47)"/><rect class="cls-2" x="361.18" y="283.78" width="4.65" height="41.99" transform="translate(727.01 554.6) rotate(180)"/><rect class="cls-2" x="305.82" y="283.78" width="4.65" height="41.99" transform="translate(616.3 554.6) rotate(180)"/><rect class="cls-2" x="388.27" y="285.27" width="9.31" height="40.01" transform="translate(728.3 617.89) rotate(-170.22)"/><rect class="cls-2" x="400.91" y="291.04" width="9.31" height="34.74" transform="translate(811.13 561.86) rotate(180)"/><rect class="cls-2" x="426.72" y="290.44" width="9.31" height="34.74" transform="translate(785.72 646.91) rotate(-167.47)"/><rect class="cls-2" x="412.89" y="283.78" width="4.65" height="41.99" transform="translate(830.44 554.6) rotate(180)"/><path class="cls-4" d="M418.26,159.31V156h-5.37a62.77,62.77,0,0,0,2-31.45s.08,13.73-5.23,13.83c-8.11.14-8.72-13.83-8.72-13.83s-2,20,5.32,31.45h-5.56v3.31Z" transform="translate(0 -54.95)"/><circle class="cls-4" cx="407.85" cy="78.76" r="4.68"/><path class="cls-4" d="M382.26,159.31v-1.93l-5.67-2.64,2.83-2.76-7.05-24.93v15.56s1,0,1,2.24-3.21,1.72-3.21-.13,1.05-2.11,1.05-2.11V126.39l-6.46,24.66,2.9,3.69-5.8,2.64v1.93Z" transform="translate(0 -54.95)"/><polygon class="cls-4" points="347.53 104.36 347.53 102.83 342.3 101.64 342.3 78.76 337.82 72.5 334 77.4 334 87.9 332.02 85.15 329.25 84.1 327.27 88.43 331.49 101.64 327.27 102.83 327.27 104.36 347.53 104.36"/><polygon class="cls-4" points="312.84 105.06 306.43 72.5 286.8 72.5 291.45 90.96 284.57 104.36 312.84 105.06"/><rect class="cls-4" x="53.31" y="56.54" width="130.44" height="6.7"/><rect class="cls-2" x="59.31" y="31.84" width="5.75" height="24.7"/><rect class="cls-2" x="87.1" y="31.84" width="5.75" height="24.7"/><rect class="cls-2" x="120.78" y="86.48" width="5.75" height="24.7" transform="translate(-14.99 -32.52) rotate(-9.78)"/><rect class="cls-2" x="66.43" y="35.09" width="5.75" height="21.45"/><rect class="cls-2" x="79.64" y="35.09" width="5.75" height="21.45"/><rect class="cls-2" x="112.98" y="35.09" width="5.75" height="21.45"/><rect class="cls-2" x="97.04" y="89.68" width="5.75" height="21.45" transform="translate(-19.4 -30.89) rotate(-12.53)"/><rect class="cls-2" x="74.27" y="30.61" width="2.87" height="25.93"/><rect class="cls-2" x="108.45" y="30.61" width="2.87" height="25.93"/><rect class="cls-2" x="143.23" y="36.99" width="28" height="19.33"/><rect class="cls-4" x="53.31" y="161.52" width="130.44" height="6.7" transform="translate(237.05 274.8) rotate(180)"/><rect class="cls-2" x="171.99" y="136.82" width="5.75" height="24.7" transform="translate(349.73 243.39) rotate(180)"/><rect class="cls-2" x="144.21" y="136.82" width="5.75" height="24.7" transform="translate(294.16 243.39) rotate(180)"/><rect class="cls-2" x="110.52" y="136.51" width="5.75" height="24.7" transform="translate(199.86 259.87) rotate(-170.22)"/><rect class="cls-2" x="164.87" y="140.08" width="5.75" height="21.45" transform="translate(335.49 246.65) rotate(180)"/><rect class="cls-2" x="151.66" y="140.08" width="5.75" height="21.45" transform="translate(309.08 246.65) rotate(180)"/><rect class="cls-2" x="118.32" y="140.08" width="5.75" height="21.45" transform="translate(242.4 246.65) rotate(180)"/><rect class="cls-2" x="134.26" y="139.71" width="5.75" height="21.45" transform="translate(238.38 272.08) rotate(-167.47)"/><rect class="cls-2" x="159.9" y="135.59" width="2.87" height="25.93" transform="translate(322.68 242.17) rotate(180)"/><rect class="cls-2" x="125.72" y="135.59" width="2.87" height="25.93" transform="translate(254.32 242.17) rotate(180)"/><rect class="cls-2" x="65.82" y="141.97" width="28" height="19.33" transform="translate(159.64 248.32) rotate(180)"/><rect class="cls-4" x="46.99" y="204.52" width="109.39" height="123.08"/><rect class="cls-2" x="52.42" y="209.42" width="98.53" height="19.82"/><rect class="cls-2" x="52.42" y="234.39" width="98.53" height="19.82"/><rect class="cls-2" x="52.42" y="259.36" width="98.53" height="59.1"/><path class="cls-4" d="M106.27,267.76H97.1a6.9,6.9,0,0,1-5.94-3.39h21A6.9,6.9,0,0,1,106.27,267.76Z" transform="translate(0 -54.95)"/><path class="cls-4" d="M106.27,292.7H97.1a6.9,6.9,0,0,1-5.94-3.39h21A6.9,6.9,0,0,1,106.27,292.7Z" transform="translate(0 -54.95)"/><path class="cls-4" d="M106.27,317.73H97.1a6.89,6.89,0,0,1-5.94-3.4h21A6.89,6.89,0,0,1,106.27,317.73Z" transform="translate(0 -54.95)"/></g><g id="Shadow"><ellipse id="_Path_" data-name="&lt;Path&gt;" class="cls-5" cx="250" cy="361.29" rx="193.89" ry="11.32"/></g><g id="Plant"><path class="cls-6" d="M107.85,342.4c-.21,1.47,3.77,2.44,7,3-.26,2.67-2,5.37-4.49,7.89-3.09-1.74-7.49-4-8.3-3.48s3.62,3.53,6.44,5.25a57.06,57.06,0,0,1-6.39,4.84c-1.38-1.29-3-2.43-4-1.81s-.73,2.63-.24,4.42c-3.36,1.95-5.87,3.14-5.87,3.14a67.5,67.5,0,0,1-2.24-9.53c.17-.33.34-.67.49-1,.54-1.25,0-1.78-.88-2a32.82,32.82,0,0,1-.05-6.86c3.79-.8,8.41-2.27,6.68-4.55-1-1.38-3-1.53-4.94-1.19a8.52,8.52,0,0,1,.94-1.27c6.92-7.62,11.74,0,11.74,0,4-3.35,9.66-2.45,10.88,2.79C112.42,341.45,108.11,340.59,107.85,342.4Z" transform="translate(0 -54.95)"/><path class="cls-7" d="M107.85,342.4c-.21,1.47,3.77,2.44,7,3-.26,2.67-2,5.37-4.49,7.89-3.09-1.74-7.49-4-8.3-3.48s3.62,3.53,6.44,5.25a57.06,57.06,0,0,1-6.39,4.84c-1.38-1.29-3-2.43-4-1.81s-.73,2.63-.24,4.42c-3.36,1.95-5.87,3.14-5.87,3.14a67.5,67.5,0,0,1-2.24-9.53c.17-.33.34-.67.49-1,.54-1.25,0-1.78-.88-2a32.82,32.82,0,0,1-.05-6.86c3.79-.8,8.41-2.27,6.68-4.55-1-1.38-3-1.53-4.94-1.19a8.52,8.52,0,0,1,.94-1.27c6.92-7.62,11.74,0,11.74,0,4-3.35,9.66-2.45,10.88,2.79C112.42,341.45,108.11,340.59,107.85,342.4Z" transform="translate(0 -54.95)"/><path class="cls-6" d="M99.22,398.39l1-.08c0-.52-4.1-51.53,7.35-56.34a3.88,3.88,0,0,1,3.47.09c4.14,2.15,6.12,11.08,6.14,11.17l1-.21c-.09-.39-2.11-9.48-6.66-11.85a4.88,4.88,0,0,0-4.32-.12C95.07,346.14,99,396.26,99.22,398.39Z" transform="translate(0 -54.95)"/><path class="cls-6" d="M97.78,397.28c.2-2.29,4.87-56.26-3.87-62-2.09-1.38-4-1.67-5.54-.87-4.13,2.09-4.68,10.91-4.7,11.29l1,.05c0-.08.53-8.62,4.15-10.45,1.24-.62,2.77-.35,4.55.81,8.24,5.41,3.46,60.52,3.41,61.08Z" transform="translate(0 -54.95)"/><path class="cls-6" d="M96.46,401.65C96.53,399.89,98,358.58,90,355a5.55,5.55,0,0,0-4.73,0c-5.46,2.4-8.83,12.58-9,13l1,.31c0-.1,3.37-10.18,8.42-12.4a4.56,4.56,0,0,1,3.92,0c6.1,2.77,6.3,34,5.86,45.74Z" transform="translate(0 -54.95)"/><path class="cls-6" d="M98.49,399.76l1-.12c-1.4-12.29-4.08-45.06.3-49a1.72,1.72,0,0,1,1.79-.55c2.93,1.13,4.72,11.78,5.16,15.8l1-.11c-.17-1.54-1.77-15.08-5.8-16.62a2.64,2.64,0,0,0-2.82.74C93.45,355,98.28,397.93,98.49,399.76Z" transform="translate(0 -54.95)"/><polygon class="cls-8" points="115.17 321.49 79.25 321.49 82.25 361.74 112.17 361.74 115.17 321.49"/><polygon class="cls-9" points="104.26 321.49 103.26 361.74 82.25 361.74 79.25 321.49 104.26 321.49"/><path class="cls-6" d="M110.28,361.68c.38,1,3.17.21,5.36-.57.75,1.73.58,4-.07,6.4-2.5,0-6,.08-6.31.7s3.44.94,5.77,1a39.92,39.92,0,0,1-2.28,5.17c-1.3-.32-2.68-.46-3.07.25s.46,1.87,1.37,2.8c-1.4,2.36-2.54,4-2.54,4a48.12,48.12,0,0,1-4.65-5.11c0-.27,0-.53,0-.81-.09-.95-.6-1.1-1.21-.9a22.78,22.78,0,0,1-2.39-4.22c2.07-1.79,4.41-4.28,2.56-5.1-1.11-.49-2.34.07-3.45,1a5.81,5.81,0,0,1,.14-1.11c1.65-7.07,7.24-4,7.24-4,1.33-3.44,5.12-4.82,7.67-2C112.78,359.52,109.82,360.47,110.28,361.68Z" transform="translate(0 -54.95)"/><path class="cls-7" d="M110.28,361.68c.38,1,3.17.21,5.36-.57.75,1.73.58,4-.07,6.4-2.5,0-6,.08-6.31.7s3.44.94,5.77,1a39.92,39.92,0,0,1-2.28,5.17c-1.3-.32-2.68-.46-3.07.25s.46,1.87,1.37,2.8c-1.4,2.36-2.54,4-2.54,4a48.12,48.12,0,0,1-4.65-5.11c0-.27,0-.53,0-.81-.09-.95-.6-1.1-1.21-.9a22.78,22.78,0,0,1-2.39-4.22c2.07-1.79,4.41-4.28,2.56-5.1-1.11-.49-2.34.07-3.45,1a5.81,5.81,0,0,1,.14-1.11c1.65-7.07,7.24-4,7.24-4,1.33-3.44,5.12-4.82,7.67-2C112.78,359.52,109.82,360.47,110.28,361.68Z" transform="translate(0 -54.95)"/><path class="cls-6" d="M83.61,366.46a13.49,13.49,0,0,1,3.28.69,7.36,7.36,0,0,0,.48-2.38c.23-7.25-5-4.19-7.7-6.32A5.93,5.93,0,0,0,75.09,357a12,12,0,0,1,.62,1.24,1.14,1.14,0,0,1-.88,1.55,3.22,3.22,0,0,1-2-.24,2.75,2.75,0,0,1-.53-.36,10,10,0,0,0-1,2.42,13.52,13.52,0,0,0-.47,3.1,10.37,10.37,0,0,1,1.21.34,1.13,1.13,0,0,1,.45,1.73,5.3,5.3,0,0,1-1.49,1,16.9,16.9,0,0,0,.91,3.39c.12,0,.25,0,.37.06s.52.12.78.19a2.32,2.32,0,0,1,.44.16,1.13,1.13,0,0,1,.25,1.93,6,6,0,0,1-.54.33,7.93,7.93,0,0,0,2.87,2.89,28.6,28.6,0,0,0,3-1.61c-.22-.29-.43-.58-.63-.88a1.67,1.67,0,0,1-.31-1.14,1.55,1.55,0,0,1,1.72-1.33,1.58,1.58,0,0,1,1,.59c.24.36.5.7.76,1a18.88,18.88,0,0,0,3.68-3.58l-.11,0a11.74,11.74,0,0,0-2-.34,1.54,1.54,0,1,1,.4-3.05Z" transform="translate(0 -54.95)"/><path class="cls-10" d="M83.61,366.46a13.49,13.49,0,0,1,3.28.69,7.36,7.36,0,0,0,.48-2.38c.23-7.25-5-4.19-7.7-6.32A5.93,5.93,0,0,0,75.09,357a12,12,0,0,1,.62,1.24,1.14,1.14,0,0,1-.88,1.55,3.22,3.22,0,0,1-2-.24,2.75,2.75,0,0,1-.53-.36,10,10,0,0,0-1,2.42,13.52,13.52,0,0,0-.47,3.1,10.37,10.37,0,0,1,1.21.34,1.13,1.13,0,0,1,.45,1.73,5.3,5.3,0,0,1-1.49,1,16.9,16.9,0,0,0,.91,3.39c.12,0,.25,0,.37.06s.52.12.78.19a2.32,2.32,0,0,1,.44.16,1.13,1.13,0,0,1,.25,1.93,6,6,0,0,1-.54.33,7.93,7.93,0,0,0,2.87,2.89,28.6,28.6,0,0,0,3-1.61c-.22-.29-.43-.58-.63-.88a1.67,1.67,0,0,1-.31-1.14,1.55,1.55,0,0,1,1.72-1.33,1.58,1.58,0,0,1,1,.59c.24.36.5.7.76,1a18.88,18.88,0,0,0,3.68-3.58l-.11,0a11.74,11.74,0,0,0-2-.34,1.54,1.54,0,1,1,.4-3.05Z" transform="translate(0 -54.95)"/><path class="cls-6" d="M81.53,341.48a9,9,0,0,0-2-1.08,5.17,5.17,0,0,1,.79-1.46c3.06-3.91,4.45,0,6.82.06a4,4,0,0,1,3,1.25,6.74,6.74,0,0,0-.87.38.79.79,0,0,0-.22,1.2,2.29,2.29,0,0,0,1.18.77,3.13,3.13,0,0,0,.43,0,6.76,6.76,0,0,1-.54,1.71A10,10,0,0,1,89,346.18a7.91,7.91,0,0,0-.79-.35.76.76,0,0,0-1,.7,3.29,3.29,0,0,0,.32,1.21,11.13,11.13,0,0,1-2,1.38l-.22-.13c-.16-.09-.33-.16-.49-.24l-.3-.11a.8.8,0,0,0-.74.17.76.76,0,0,0-.24.74,3.31,3.31,0,0,0,.14.41,5.5,5.5,0,0,1-2.78.26,20.82,20.82,0,0,1-.89-2.19c.24-.06.48-.11.71-.18a1.19,1.19,0,0,0,.67-.47,1,1,0,0,0-.33-1.45,1,1,0,0,0-.79-.14c-.28.08-.57.14-.86.21a13.14,13.14,0,0,1-.37-3.5l.08,0a8.25,8.25,0,0,1,1.22.71,1.05,1.05,0,0,0,1.45-.32A1.06,1.06,0,0,0,81.53,341.48Z" transform="translate(0 -54.95)"/><path class="cls-7" d="M81.53,341.48a9,9,0,0,0-2-1.08,5.17,5.17,0,0,1,.79-1.46c3.06-3.91,4.45,0,6.82.06a4,4,0,0,1,3,1.25,6.74,6.74,0,0,0-.87.38.79.79,0,0,0-.22,1.2,2.29,2.29,0,0,0,1.18.77,3.13,3.13,0,0,0,.43,0,6.76,6.76,0,0,1-.54,1.71A10,10,0,0,1,89,346.18a7.91,7.91,0,0,0-.79-.35.76.76,0,0,0-1,.7,3.29,3.29,0,0,0,.32,1.21,11.13,11.13,0,0,1-2,1.38l-.22-.13c-.16-.09-.33-.16-.49-.24l-.3-.11a.8.8,0,0,0-.74.17.76.76,0,0,0-.24.74,3.31,3.31,0,0,0,.14.41,5.5,5.5,0,0,1-2.78.26,20.82,20.82,0,0,1-.89-2.19c.24-.06.48-.11.71-.18a1.19,1.19,0,0,0,.67-.47,1,1,0,0,0-.33-1.45,1,1,0,0,0-.79-.14c-.28.08-.57.14-.86.21a13.14,13.14,0,0,1-.37-3.5l.08,0a8.25,8.25,0,0,1,1.22.71,1.05,1.05,0,0,0,1.45-.32A1.06,1.06,0,0,0,81.53,341.48Z" transform="translate(0 -54.95)"/><path class="cls-6" d="M110.8,348.73c.21,1.47-3.77,2.44-7,3,.26,2.67,2,5.36,4.49,7.88,3.09-1.74,7.49-4,8.3-3.47s-3.62,3.53-6.44,5.24a57.06,57.06,0,0,0,6.39,4.84c1.38-1.29,3-2.42,4-1.81s.73,2.64.24,4.42c3.36,2,5.87,3.15,5.87,3.15a67.5,67.5,0,0,0,2.24-9.53c-.17-.34-.34-.67-.49-1-.54-1.25,0-1.79.88-2a32.91,32.91,0,0,0,.05-6.87c-3.79-.79-8.41-2.27-6.68-4.55,1-1.37,3-1.53,4.94-1.18a8.61,8.61,0,0,0-.94-1.28c-6.92-7.62-11.74,0-11.74,0-4-3.35-9.66-2.44-10.88,2.79C106.23,347.77,110.54,346.91,110.8,348.73Z" transform="translate(0 -54.95)"/><path class="cls-10" d="M110.8,348.73c.21,1.47-3.77,2.44-7,3,.26,2.67,2,5.36,4.49,7.88,3.09-1.74,7.49-4,8.3-3.47s-3.62,3.53-6.44,5.24a57.06,57.06,0,0,0,6.39,4.84c1.38-1.29,3-2.42,4-1.81s.73,2.64.24,4.42c3.36,2,5.87,3.15,5.87,3.15a67.5,67.5,0,0,0,2.24-9.53c-.17-.34-.34-.67-.49-1-.54-1.25,0-1.79.88-2a32.91,32.91,0,0,0,.05-6.87c-3.79-.79-8.41-2.27-6.68-4.55,1-1.37,3-1.53,4.94-1.18a8.61,8.61,0,0,0-.94-1.28c-6.92-7.62-11.74,0-11.74,0-4-3.35-9.66-2.44-10.88,2.79C106.23,347.77,110.54,346.91,110.8,348.73Z" transform="translate(0 -54.95)"/></g><g id="Device"><rect class="cls-8" x="132.26" y="22.27" width="188.74" height="339.47" rx="10.4"/><path class="cls-6" d="M314.69,88.59V404.71a4.62,4.62,0,0,1-4.69,4.62H142.88a4.14,4.14,0,0,1-4.19-4.24V88.21a3.73,3.73,0,0,1,3.59-3.88h41.78a2.94,2.94,0,0,1,2.69,1.88l1.73,4.26a2.94,2.94,0,0,0,2.69,1.86H262.3A2.91,2.91,0,0,0,265,90.5l1.73-4.28a3,3,0,0,1,2.69-1.89h41.18A4.22,4.22,0,0,1,314.69,88.59Z" transform="translate(0 -54.95)"/><rect class="cls-7" x="138.69" y="49.13" width="176" height="284.25"/><circle class="cls-11" cx="222.71" cy="29.79" r="2.42"/><path class="cls-11" d="M230,84.75a1.55,1.55,0,1,1-1.55-1.55A1.54,1.54,0,0,1,230,84.75Z" transform="translate(0 -54.95)"/><rect class="cls-11" x="158.54" y="94.17" width="2.17" height="2.9" transform="translate(319.26 136.29) rotate(180)"/><rect class="cls-11" x="155" y="93.21" width="2.17" height="3.86" transform="translate(312.17 135.32) rotate(180)"/><rect class="cls-11" x="151.46" y="92.24" width="2.17" height="4.83" transform="translate(305.09 134.36) rotate(180)"/><rect class="cls-11" x="147.91" y="91.27" width="2.17" height="5.8" transform="translate(298 133.39) rotate(180)"/><rect class="cls-11" x="293.94" y="38.16" width="1.29" height="2.9"/><rect class="cls-11" x="296.11" y="92.06" width="10.27" height="5.01" transform="translate(602.49 134.17) rotate(180)"/><g class="cls-12"><circle class="cls-13" cx="188.85" cy="107.86" r="39.85"/><g id="_Group_" data-name="&lt;Group&gt;"><path class="cls-8" d="M170.37,299l0-8.27a.61.61,0,0,0-.47-.58l-6.05-1.37a1,1,0,0,0-1.19.77.82.82,0,0,0,0,.22c0,2.67.18,4.62.16,8,0,2.07-.25,8.3-.27,11.16s2.81,3.24,3.07,2.07c1.17-5.24,2.77-9.17,4.29-10.84A1.71,1.71,0,0,0,170.37,299Z" transform="translate(0 -54.95)"/><path class="cls-8" d="M207.25,222.88l2.67,14S231,271,231,290.72c0,23.55-61.43,10-61.43,10V289.84s36.71,3.16,40-.52c4-4.47-20.74-39.06-20.74-39.06Z" transform="translate(0 -54.95)"/><path class="cls-9" d="M231,290.73c0,13-18.68,14.67-35.43,13.58a195.8,195.8,0,0,1-24.85-3.39l-1.15-.24V289.84l1.35.11c4.18.33,17.17,1.28,27,1.13,5.85-.08,10.58-.55,11.67-1.76,2-2.2-3-11.67-8.57-20.74h0c-5.77-9.37-12.17-18.32-12.17-18.32l8.06-12,10.34-15.37,2.67,14S231,271,231,290.73Z" transform="translate(0 -54.95)"/><path class="cls-14" d="M197.92,291.08l-2.35,13.23a195.8,195.8,0,0,1-24.85-3.39l.2-11C175.1,290.28,188.09,291.23,197.92,291.08Z" transform="translate(0 -54.95)"/><path class="cls-14" d="M197,253.23s3.43,8.07,4.07,15.34c-5.77-9.37-12.17-18.32-12.17-18.32l8.06-12,4.25-1.37S202.1,242.39,197,253.23Z" transform="translate(0 -54.95)"/><path class="cls-8" d="M191.46,371.72H183.2a.61.61,0,0,0-.58.47l-1.34,6.06a1,1,0,0,0,.77,1.19l.22,0c2.68,0,4.62-.21,8-.21,2.07,0,8.3.22,11.16.22s3.23-2.82,2.06-3.08c-5.24-1.15-9.19-2.73-10.87-4.23A1.66,1.66,0,0,0,191.46,371.72Z" transform="translate(0 -54.95)"/><path class="cls-8" d="M170.45,223.33s-1.83,6.85,0,38.27C173.27,309.83,182.21,374,182.21,374l10.39-1.88s-1.32-96.06.07-122.56c0,0,14.69-13.18,14.58-26.72S170.45,223.33,170.45,223.33Z" transform="translate(0 -54.95)"/><path class="cls-9" d="M170.45,223.33s-1.83,6.85,0,38.27C173.27,309.83,182.21,374,182.21,374l10.39-1.88s-1.32-96.06.07-122.56c0,0,14.69-13.18,14.58-26.72S170.45,223.33,170.45,223.33Z" transform="translate(0 -54.95)"/><polygon class="cls-8" points="206.79 164.05 170.45 164.05 170.45 168.38 207.25 167.93 206.79 164.05"/><rect class="cls-8" x="182.13" y="217.06" width="1.3" height="7.68" transform="translate(365.56 386.84) rotate(180)"/><rect class="cls-8" x="200.51" y="217.06" width="1.3" height="7.68" transform="translate(402.33 386.84) rotate(180)"/><rect class="cls-13" x="190.23" y="218.25" width="6.72" height="4.84" transform="translate(387.17 386.38) rotate(180)"/><rect class="cls-9" x="182.13" y="217.06" width="1.3" height="7.68" transform="translate(365.56 386.84) rotate(180)"/><rect class="cls-9" x="200.51" y="217.06" width="1.3" height="7.68" transform="translate(402.33 386.84) rotate(180)"/><path class="cls-6" d="M203.19,156.12s-23-1.09-40.07,3.23c0,0,7.55,38,7.27,59.65h36.4S209.15,178.44,203.19,156.12Z" transform="translate(0 -54.95)"/><path class="cls-11" d="M206.78,219H170.39c0-2.35,0-4.89-.16-7.56-.32-6.24-1-13.16-1.89-19.85-.08-.66-.17-1.31-.25-2-.58-4.35-1.21-8.55-1.82-12.39-1.64-10.31-3.15-17.89-3.15-17.89,17.11-4.31,40.07-3.24,40.07-3.24C209.15,178.44,206.78,219,206.78,219Z" transform="translate(0 -54.95)"/><path class="cls-15" d="M176.53,157.63c3.3,3,11.37,1.89,11.37,1.89s5-1.38,4-3c-3-.49-4.41-1.88-5-3.65a8.8,8.8,0,0,1-.3-3.39c0-.63.14-1.27.25-1.9l-10-7.39C178.16,145.11,179.76,154.09,176.53,157.63Z" transform="translate(0 -54.95)"/><path class="cls-14" d="M179.15,144.93c.4,6,5.32,7.64,7.73,8a8.8,8.8,0,0,1-.3-3.39Z" transform="translate(0 -54.95)"/><path class="cls-8" d="M191.56,124.84s3.42,8.79-.63,13.37-7.84-12.36-7.84-12.36Z" transform="translate(0 -54.95)"/><path class="cls-15" d="M178.52,148.58a8.49,8.49,0,0,0,10.21,1.08,9.45,9.45,0,0,0,4.29-5.45c.1-.32.17-.64.24-1,1.13-6.1-.29-16-7-18.33a9.18,9.18,0,0,0-12.17,9.81C174.84,141.38,175,145.34,178.52,148.58Z" transform="translate(0 -54.95)"/><path class="cls-8" d="M184.37,136.07c0,.55.33,1,.69,1s.62-.47.6-1-.34-1-.7-.95S184.34,135.52,184.37,136.07Z" transform="translate(0 -54.95)"/><path class="cls-8" d="M190.53,135.76c0,.54.34,1,.7,1s.62-.48.59-1-.34-1-.7-.95S190.5,135.24,190.53,135.76Z" transform="translate(0 -54.95)"/><path class="cls-16" d="M188.58,136.13a19.42,19.42,0,0,0,2.85,4.53,3.15,3.15,0,0,1-2.6.62Z" transform="translate(0 -54.95)"/><path class="cls-8" d="M182.35,134.18a.35.35,0,0,0,.31-.15,2.57,2.57,0,0,1,2-1.17.32.32,0,1,0,0-.64h0a3.2,3.2,0,0,0-2.53,1.45.33.33,0,0,0,.07.45h0A.59.59,0,0,0,182.35,134.18Z" transform="translate(0 -54.95)"/><path class="cls-8" d="M193.07,133.5a.31.31,0,0,0,.19,0,.32.32,0,0,0,.13-.43h0a3.17,3.17,0,0,0-2.4-1.68.3.3,0,0,0-.34.29h0a.33.33,0,0,0,.29.34h0a2.58,2.58,0,0,1,1.88,1.36A.3.3,0,0,0,193.07,133.5Z" transform="translate(0 -54.95)"/><path class="cls-8" d="M178.6,126.12l.65,2.9a2.2,2.2,0,0,0-.83,2.87c1.19,2.38.17,6.36-1.58,8.07,0,0-.16-1.06-1-.72s-.08,5.9,1.95,8.39a19.6,19.6,0,0,1-5.49-8.35c-1.93-5.28-2-9.28-1.15-11.49Z" transform="translate(0 -54.95)"/><path class="cls-15" d="M171.47,140.36a6.37,6.37,0,0,0,3.81,3c2.15.6,3.23-1.32,2.64-3.36-.54-1.8-2.31-4.35-4.48-4A2.85,2.85,0,0,0,171.47,140.36Z" transform="translate(0 -54.95)"/><path class="cls-8" d="M179.25,129s7.24,2.57,11.36-1.25-.64-9-.64-9a6,6,0,0,1-3.76,1.8c-2.31.16-7.64-1.23-11.93,1s-5.9,8.37-2,11.17Z" transform="translate(0 -54.95)"/><path class="cls-17" d="M185,142.22a3.14,3.14,0,0,0,3.57,1.28" transform="translate(0 -54.95)"/><path class="cls-6" d="M191.19,159l-1,4.75s5.53,23.07,6.72,35l-2,2-3.17-2s-.28-24.37-3.08-34.61l-5-4.11,4-1.27Z" transform="translate(0 -54.95)"/><path class="cls-6" d="M177.66,153.11l9.59,4.32.56-3.46,3.53,1.24a2.9,2.9,0,0,1,1.92,3l-.4,3.81L188,159.38l-2.43,3.43-11.52-5.55Z" transform="translate(0 -54.95)"/><path class="cls-18" d="M177.66,153.11l9.59,4.32.56-3.46,3.53,1.24a2.9,2.9,0,0,1,1.92,3l-.4,3.81L188,159.38l-2.43,3.43-11.52-5.55Z" transform="translate(0 -54.95)"/><path class="cls-8" d="M174.31,156.67s9.05,7.36,19.28,30.83c0,0,.37-22.93-1.56-31.93l11.16.54s8.16,18,4.06,57l2.83,19.48-12.3,5.15L195,228.68l-2.92,8.9-23.72-3.17,1.26-24.6s-5.69-40.66-6.45-50.46Z" transform="translate(0 -54.95)"/><path class="cls-19" d="M210.09,232.59l-12.31,5.14-2.83-9L192,237.57l-9.16-1.22-14.56-1.95.63-12.22.63-12.38s-.25-1.74-.63-4.59-1-7.21-1.63-11.9c-.31-2.31-.63-4.74-1-7.2s-.68-5.23-1-7.8c-1-8.08-1.92-15.47-2.19-19l10.41-2.5.77-.19s8.71,7.09,18.69,29.5l.58,1.33s0-.45,0-1.26c0-4.94.08-22.94-1.57-30.66l11.16.54s4.63,10.21,5.17,31.86q.09,3.84,0,8.18c-.12,5.13-.46,10.78-1.11,17Z" transform="translate(0 -54.95)"/><path class="cls-9" d="M197.7,166.06l2.59,4.56s-2.69,17.56-7,23.67v-3.63l-16.74-19.3,3-4.64L172,168.2s-.7-7,1.54-11.35l.77-.18s9.05,7.37,19.27,30.83c0,0,.38-22.94-1.55-31.93,0,0,5.33,2.89,9.13,10.49Z" transform="translate(0 -54.95)"/><path class="cls-14" d="M208.37,196.15c-2.83-.43-6.65-1.14-11.42-2.33,0,0-14.38,9.32-20.87,10.44-3,.53-5.35.81-7.14,1-.42-3-1-7.21-1.63-11.9-.31-2.31-.63-4.74-1-7.2l4.95-16.1,12.37,15.05,9.34,1.1.6.07L208.36,188Q208.45,191.81,208.37,196.15Z" transform="translate(0 -54.95)"/><path class="cls-8" d="M203.19,156.12c4.92,1.15,20.11,22.68,19.67,31.51s-38.58,4.18-38.58,4.18l1-4.31,22.66-7.6a105.79,105.79,0,0,0-1.56-11.23A111.2,111.2,0,0,0,203.19,156.12Z" transform="translate(0 -54.95)"/><path class="cls-19" d="M222.86,187.63c-.24,4.76-11.46,5.6-21.74,5.36-3.32-.08-6.53-.26-9.25-.47-4.47-.33-7.59-.72-7.59-.72l1-4.31,7.9-2.64,14.77-4.95a109,109,0,0,0-1.56-11.23c-.07-.36-.14-.71-.22-1.07a108.69,108.69,0,0,0-3-11.49C208.11,157.27,223.3,178.8,222.86,187.63Z" transform="translate(0 -54.95)"/><path class="cls-14" d="M214.49,179.83A70.15,70.15,0,0,1,201.12,193c-3.32-.08-6.53-.26-9.25-.47a16,16,0,0,1-.7-5l2-2.64,14.77-4.95a109,109,0,0,0-1.56-11.23c-.07-.36-.14-.71-.22-1.07l.08-.09S212.84,172.56,214.49,179.83Z" transform="translate(0 -54.95)"/><path class="cls-15" d="M187.53,185.11s-4.51-3.63-6.27-4.18-5.18,2.09-5.18,2.09l4.4,6.28Z" transform="translate(0 -54.95)"/><path class="cls-15" d="M207.78,184.34l6.71-4.51s-5.06-3.63-5.72-3.74-4,3.74-4,3.74Z" transform="translate(0 -54.95)"/><path class="cls-8" d="M163.13,159.35c-6.53,3.2,2.81,34.19,10.91,40.49s35.58-15.55,35.58-15.55l-4.15-5.82S184,186,181.18,185.26s-10.4-16.81-12.87-20.53a21.4,21.4,0,0,0-6.12-5.9" transform="translate(0 -54.95)"/><path class="cls-19" d="M163.13,159.35c-6.53,3.2,2.81,34.19,10.91,40.49s35.58-15.55,35.58-15.55l-4.15-5.82S184,186,181.18,185.26s-10.4-16.81-12.87-20.53a21.4,21.4,0,0,0-6.12-5.9" transform="translate(0 -54.95)"/></g></g><path class="cls-6" d="M282.93,144.3H245.82a4.8,4.8,0,0,1-4.79-4.79h0a4.79,4.79,0,0,1,4.79-4.78h37.11a4.78,4.78,0,0,1,4.78,4.78h0A4.79,4.79,0,0,1,282.93,144.3Z" transform="translate(0 -54.95)"/><path class="cls-6" d="M299.84,155.62h-57a1.84,1.84,0,0,1-1.84-1.84h0a1.83,1.83,0,0,1,1.84-1.83h57a1.83,1.83,0,0,1,1.84,1.83h0A1.84,1.84,0,0,1,299.84,155.62Z" transform="translate(0 -54.95)"/><path class="cls-6" d="M275.67,164.16h-32.8a1.83,1.83,0,0,1-1.84-1.83h0a1.84,1.84,0,0,1,1.84-1.84h32.8a1.83,1.83,0,0,1,1.83,1.84h0A1.83,1.83,0,0,1,275.67,164.16Z" transform="translate(0 -54.95)"/><path class="cls-14" d="M259.91,186.66H245.49A4.46,4.46,0,0,1,241,182.2h0a4.46,4.46,0,0,1,4.46-4.46h14.42a4.45,4.45,0,0,1,4.46,4.46h0A4.46,4.46,0,0,1,259.91,186.66Z" transform="translate(0 -54.95)"/><rect class="cls-6" x="143.32" y="159.76" width="65.14" height="163.23"/><g class="cls-20"><path class="cls-13" d="M191.35,257.83h-37a1.84,1.84,0,0,1-1.84-1.84h0a1.83,1.83,0,0,1,1.84-1.83h37a1.83,1.83,0,0,1,1.84,1.83h0A1.84,1.84,0,0,1,191.35,257.83Z" transform="translate(0 -54.95)"/><path class="cls-13" d="M177.18,266.37h-22.8a1.84,1.84,0,0,1-1.84-1.84h0a1.83,1.83,0,0,1,1.84-1.83h22.8a1.84,1.84,0,0,1,1.84,1.83h0A1.84,1.84,0,0,1,177.18,266.37Z" transform="translate(0 -54.95)"/></g><g class="cls-20"><path class="cls-13" d="M181.35,283.38h-27a1.84,1.84,0,0,1-1.84-1.84h0a1.83,1.83,0,0,1,1.84-1.83h27a1.83,1.83,0,0,1,1.84,1.83h0A1.84,1.84,0,0,1,181.35,283.38Z" transform="translate(0 -54.95)"/><path class="cls-13" d="M187.18,291.92h-32.8a1.83,1.83,0,0,1-1.84-1.83h0a1.84,1.84,0,0,1,1.84-1.84h32.8a1.84,1.84,0,0,1,1.84,1.84h0A1.84,1.84,0,0,1,187.18,291.92Z" transform="translate(0 -54.95)"/></g><g class="cls-20"><path class="cls-13" d="M191.35,308.93h-37a1.83,1.83,0,0,1-1.84-1.83h0a1.84,1.84,0,0,1,1.84-1.84h37a1.84,1.84,0,0,1,1.84,1.84h0A1.83,1.83,0,0,1,191.35,308.93Z" transform="translate(0 -54.95)"/><path class="cls-13" d="M167.18,317.48h-12.8a1.84,1.84,0,0,1-1.84-1.84h0a1.83,1.83,0,0,1,1.84-1.83h12.8a1.84,1.84,0,0,1,1.84,1.83h0A1.85,1.85,0,0,1,167.18,317.48Z" transform="translate(0 -54.95)"/></g><g class="cls-20"><path class="cls-13" d="M171.35,334.49h-17a1.84,1.84,0,0,1-1.84-1.84h0a1.83,1.83,0,0,1,1.84-1.83h17a1.83,1.83,0,0,1,1.84,1.83h0A1.84,1.84,0,0,1,171.35,334.49Z" transform="translate(0 -54.95)"/><path class="cls-13" d="M187.18,343h-32.8a1.84,1.84,0,0,1-1.84-1.84h0a1.83,1.83,0,0,1,1.84-1.83h32.8a1.84,1.84,0,0,1,1.84,1.83h0A1.84,1.84,0,0,1,187.18,343Z" transform="translate(0 -54.95)"/></g><rect class="cls-7" x="212.15" y="214.71" width="97.58" height="163.23" transform="translate(521.89 537.71) rotate(180)"/><g class="cls-21"><path d="M227.55,232.27h27a1.84,1.84,0,1,0,0-3.67h-27a1.84,1.84,0,1,0,0,3.67Z" transform="translate(0 -54.95)"/><path d="M290.52,247.34h-51a1.84,1.84,0,1,0,0,3.67h51a1.84,1.84,0,1,0,0-3.67Z" transform="translate(0 -54.95)"/><path d="M227.55,259.55h62.8a1.84,1.84,0,0,0,0-3.67h-62.8a1.84,1.84,0,1,0,0,3.67Z" transform="translate(0 -54.95)"/><path d="M290.52,266.07h-63a1.84,1.84,0,1,0,0,3.67h63a1.84,1.84,0,1,0,0-3.67Z" transform="translate(0 -54.95)"/><path d="M227.55,278.29h62.8a1.84,1.84,0,0,0,0-3.67h-62.8a1.84,1.84,0,1,0,0,3.67Z" transform="translate(0 -54.95)"/><path d="M290.52,284.81h-63a1.84,1.84,0,1,0,0,3.67h63a1.84,1.84,0,1,0,0-3.67Z" transform="translate(0 -54.95)"/><path d="M227.55,297h48.8a1.84,1.84,0,0,0,0-3.67h-48.8a1.84,1.84,0,1,0,0,3.67Z" transform="translate(0 -54.95)"/><path d="M239.55,315.75h50.8a1.84,1.84,0,0,0,0-3.67h-50.8a1.84,1.84,0,1,0,0,3.67Z" transform="translate(0 -54.95)"/><path d="M290.52,322.28h-63a1.84,1.84,0,1,0,0,3.67h63a1.84,1.84,0,1,0,0-3.67Z" transform="translate(0 -54.95)"/><path d="M227.55,334.49h62.8a1.84,1.84,0,0,0,0-3.67h-62.8a1.84,1.84,0,1,0,0,3.67Z" transform="translate(0 -54.95)"/><path d="M277.52,341h-50a1.84,1.84,0,1,0,0,3.67h50a1.84,1.84,0,1,0,0-3.67Z" transform="translate(0 -54.95)"/><path d="M290.52,359.75h-63a1.84,1.84,0,1,0,0,3.67h63a1.84,1.84,0,1,0,0-3.67Z" transform="translate(0 -54.95)"/></g><g class="cls-20"><path class="cls-13" d="M181.35,232.27h-27a1.83,1.83,0,0,1-1.84-1.83h0a1.84,1.84,0,0,1,1.84-1.84h27a1.84,1.84,0,0,1,1.84,1.84h0A1.83,1.83,0,0,1,181.35,232.27Z" transform="translate(0 -54.95)"/><path class="cls-13" d="M167.18,240.82h-12.8a1.84,1.84,0,0,1-1.84-1.84h0a1.83,1.83,0,0,1,1.84-1.83h12.8A1.84,1.84,0,0,1,169,239h0A1.85,1.85,0,0,1,167.18,240.82Z" transform="translate(0 -54.95)"/></g></g><g id="Character"><g id="_Group_2" data-name="&lt;Group&gt;"><path class="cls-15" d="M396.9,180.86l2.44-4.43,6.28-9.13,1.18-7.56s5.5,2,6.4,3.63.48,9.7,0,10.69-6.15,4.88-6.15,4.88l-3,5.8Z" transform="translate(0 -54.95)"/><path class="cls-8" d="M369.06,149.09s20.32,31.91,22.7,34.77,5-7.43,5-7.43l10.28,4.48s-2.9,19.51-10.81,20.3-24.79-20-24.79-20Z" transform="translate(0 -54.95)"/><path class="cls-19" d="M407.05,180.91s-2.9,19.51-10.81,20.31c-3.95.39-10.15-4.61-15.35-9.72s-9.44-10.32-9.44-10.32l-.82-11-1.57-21.14s20.32,31.91,22.7,34.77,5-7.43,5-7.43Z" transform="translate(0 -54.95)"/><path class="cls-14" d="M380.89,191.5c-5.21-5.11-9.44-10.32-9.44-10.32l-.82-11A32.73,32.73,0,0,1,380.89,191.5Z" transform="translate(0 -54.95)"/><path class="cls-8" d="M329.73,320.23l0-9.9a.72.72,0,0,0-.56-.7L322,308a1.2,1.2,0,0,0-1.43.92,1.24,1.24,0,0,0,0,.27c0,3.2.22,5.53.2,9.55,0,2.48-.31,9.95-.32,13.37s3.36,3.89,3.67,2.49c1.4-6.28,3.32-11,5.14-13A2,2,0,0,0,329.73,320.23Z" transform="translate(0 -54.95)"/><path class="cls-8" d="M373.92,229.08l3.2,16.77s25.27,40.9,25.26,64.51c0,28.21-73.6,11.94-73.6,11.94v-13s44,3.78,48-.63c4.81-5.36-24.85-46.8-24.85-46.8Z" transform="translate(0 -54.95)"/><path class="cls-9" d="M402.38,310.37c0,15.55-22.38,17.58-42.45,16.27a235.43,235.43,0,0,1-29.77-4.05l-1.38-.29v-13l1.62.13c5,.4,20.57,1.53,32.35,1.36,7-.1,12.67-.67,14-2.12,2.36-2.63-3.6-14-10.27-24.84h0c-6.91-11.23-14.58-21.95-14.58-21.95l9.66-14.38,12.38-18.42,3.2,16.77S402.39,286.75,402.38,310.37Z" transform="translate(0 -54.95)"/><path class="cls-14" d="M362.75,310.8l-2.82,15.84a235.43,235.43,0,0,1-29.77-4.05l.24-13.15C335.4,309.84,351,311,362.75,310.8Z" transform="translate(0 -54.95)"/><path class="cls-14" d="M361.58,265.44s4.11,9.67,4.88,18.39c-6.91-11.23-14.58-21.95-14.58-21.95l9.66-14.38,5.09-1.65S367.76,252.45,361.58,265.44Z" transform="translate(0 -54.95)"/><path class="cls-8" d="M355,407.41h-9.9a.74.74,0,0,0-.7.56l-1.6,7.26a1.19,1.19,0,0,0,.92,1.42,1.24,1.24,0,0,0,.27,0c3.2-.05,5.53-.25,9.56-.25,2.47,0,9.95.26,13.37.26s3.86-3.38,2.46-3.69c-6.28-1.37-11-3.26-13-5.07A2,2,0,0,0,355,407.41Z" transform="translate(0 -54.95)"/><path class="cls-8" d="M329.83,229.62s-2.19,8.21,0,45.85c3.38,57.79,14.09,134.72,14.09,134.72l12.45-2.26s-1.59-115.08.09-146.84c0,0,17.6-15.79,17.46-32S329.83,229.62,329.83,229.62Z" transform="translate(0 -54.95)"/><path class="cls-9" d="M329.83,229.62s-2.19,8.21,0,45.85c3.38,57.79,14.09,134.72,14.09,134.72l12.45-2.26s-1.59-115.08.09-146.84c0,0,17.6-15.79,17.46-32S329.83,229.62,329.83,229.62Z" transform="translate(0 -54.95)"/><polygon class="cls-8" points="373.37 169.48 329.83 169.48 329.83 174.66 373.93 174.13 373.37 169.48"/><rect class="cls-8" x="343.83" y="222.1" width="1.55" height="9.2" transform="translate(689.21 398.45) rotate(180)"/><rect class="cls-8" x="365.85" y="222.1" width="1.55" height="9.2" transform="translate(733.26 398.45) rotate(180)"/><rect class="cls-13" x="353.53" y="223.53" width="8.05" height="5.8" transform="translate(715.11 397.9) rotate(180)"/><rect class="cls-9" x="343.83" y="222.1" width="1.55" height="9.2" transform="translate(689.21 398.45) rotate(180)"/><rect class="cls-9" x="365.85" y="222.1" width="1.55" height="9.2" transform="translate(733.26 398.45) rotate(180)"/><path class="cls-6" d="M369.06,149.09s-27.51-1.3-48,3.87c0,0,9.05,45.56,8.71,71.47h43.61S376.2,175.83,369.06,149.09Z" transform="translate(0 -54.95)"/><path class="cls-11" d="M373.37,224.43h-43.6c0-2.82,0-5.86-.2-9.06-.38-7.48-1.23-15.77-2.26-23.79l-.3-2.34c-.7-5.21-1.45-10.25-2.18-14.85-2-12.35-3.77-21.43-3.77-21.43,20.49-5.17,48-3.88,48-3.88C376.2,175.83,373.37,224.43,373.37,224.43Z" transform="translate(0 -54.95)"/><path class="cls-15" d="M337.12,150.9c3.95,3.59,13.62,2.26,13.62,2.26s6-1.65,4.78-3.54c-3.56-.59-5.28-2.25-6-4.38a10.43,10.43,0,0,1-.36-4.06,22,22,0,0,1,.3-2.27l-12-8.86C339.07,135.9,341,146.66,337.12,150.9Z" transform="translate(0 -54.95)"/><path class="cls-14" d="M340.26,135.68c.48,7.18,6.38,9.16,9.26,9.56a10.43,10.43,0,0,1-.36-4.06Z" transform="translate(0 -54.95)"/><path class="cls-8" d="M333.51,111.45s-3.34,10.8,1.89,15.93,8.31-15.44,8.31-15.44Z" transform="translate(0 -54.95)"/><path class="cls-15" d="M351.11,138.71a10.13,10.13,0,0,1-12.1,2.16,11.27,11.27,0,0,1-5.6-6.15c-.14-.36-.26-.75-.37-1.14-1.87-7.18-1-19.13,6.79-22.49a11,11,0,0,1,14.46,5.66,10.81,10.81,0,0,1,.91,5C354.9,129.8,355.09,134.53,351.11,138.71Z" transform="translate(0 -54.95)"/><path class="cls-8" d="M343.06,124.27c.06.64-.32,1.18-.75,1.19s-.78-.52-.8-1.17.33-1.19.75-1.19S343,123.6,343.06,124.27Z" transform="translate(0 -54.95)"/><path class="cls-8" d="M335.67,124.41c.06.65-.33,1.19-.75,1.2s-.78-.52-.8-1.17.33-1.19.75-1.2S335.66,123.79,335.67,124.41Z" transform="translate(0 -54.95)"/><path class="cls-16" d="M338,124.69a23.15,23.15,0,0,1-3,5.66,3.81,3.81,0,0,0,3.16.52Z" transform="translate(0 -54.95)"/><path class="cls-8" d="M345.31,121.83a.42.42,0,0,1-.38-.15,3.08,3.08,0,0,0-2.48-1.23.39.39,0,0,1-.42-.35.38.38,0,0,1,.35-.41h0a3.79,3.79,0,0,1,3.15,1.52.38.38,0,0,1,0,.53h0A.8.8,0,0,1,345.31,121.83Z" transform="translate(0 -54.95)"/><path class="cls-8" d="M332.44,121.93a.34.34,0,0,1-.22,0,.38.38,0,0,1-.2-.5h0a3.77,3.77,0,0,1,2.72-2.21.38.38,0,0,1,.43.32h0a.39.39,0,0,1-.32.43h0a3.08,3.08,0,0,0-2.13,1.79A.41.41,0,0,1,332.44,121.93Z" transform="translate(0 -54.95)"/><path class="cls-8" d="M349.11,111.88l-.53,3.52a2.64,2.64,0,0,1,1.23,3.36c-1.22,2.95.34,7.61,2.58,9.51,0,0,.1-1.28,1.18-1s.6,7-1.61,10.19a23.48,23.48,0,0,0,5.84-10.44c1.86-6.48,1.66-11.27.39-13.83Z" transform="translate(0 -54.95)"/><path class="cls-15" d="M358.84,128.29a7.66,7.66,0,0,1-4.3,4c-2.52.9-4-1.31-3.44-3.79.5-2.21,2.39-5.4,5-5.21S359.86,126,358.84,128.29Z" transform="translate(0 -54.95)"/><path class="cls-8" d="M337.57,132.83a19.64,19.64,0,0,1,.79,2.85,4.52,4.52,0,0,0,.52,0c2.36-.11,3.42-.94,3.88-1.82a3.09,3.09,0,0,0,.31-1.41,2.93,2.93,0,0,0-.11-.82,11,11,0,0,1-4.58,1.17C337.88,132.83,337.57,132.83,337.57,132.83Z" transform="translate(0 -54.95)"/><path class="cls-13" d="M338.38,132.78l.25.84c2.22-.11,3.77-.48,4.44-1.19a2.93,2.93,0,0,0-.11-.82A11,11,0,0,1,338.38,132.78Z" transform="translate(0 -54.95)"/><path class="cls-22" d="M338.88,135.66c2.36-.11,3.42-.94,3.88-1.82a7.62,7.62,0,0,0-2.6.64A2.8,2.8,0,0,0,338.88,135.66Z" transform="translate(0 -54.95)"/><path class="cls-8" d="M348.58,115.4s-8.43,3.69-13.68-.53,0-10.79,0-10.79a7.21,7.21,0,0,0,4.64,1.82c2.77,0,9-2.11,14.34.13s7.76,9.5,3.3,13.19Z" transform="translate(0 -54.95)"/><path class="cls-6" d="M354.68,152.57l-1.15,5.7s6.62,27.64,8.05,42l-2.42,2.41-3.8-2.41s-.34-29.2-3.69-41.47l-6-4.92,4.73-1.53Z" transform="translate(0 -54.95)"/><path class="cls-6" d="M338.47,145.48,350,150.66l.68-4.15,4.22,1.49a3.45,3.45,0,0,1,2.3,3.63l-.47,4.56L350.85,153l-2.9,4.11-13.81-6.65Z" transform="translate(0 -54.95)"/><path class="cls-18" d="M338.47,145.48,350,150.66l.68-4.15,4.22,1.49a3.45,3.45,0,0,1,2.3,3.63l-.47,4.56L350.85,153l-2.9,4.11-13.81-6.65Z" transform="translate(0 -54.95)"/><path class="cls-8" d="M334.46,149.75s10.84,8.82,23.09,36.94c0,0,.45-27.48-1.86-38.26l13.37.65s9.78,21.61,4.87,68.29l3.39,23.34-14.74,6.17L359.18,236l-3.49,10.67-28.42-3.8,1.51-29.47S322,164.71,321.06,153Z" transform="translate(0 -54.95)"/><path class="cls-19" d="M377.32,240.72l-14.74,6.16L359.18,236l-3.49,10.66-11-1.47-17.44-2.33.75-14.64.76-14.83s-1.22-8.77-2.71-19.76c-.77-5.7-1.6-12-2.38-18-1.24-9.68-2.31-18.54-2.63-22.72l12.47-3,.93-.22s10.84,8.83,23.09,36.94c0,0,.45-27.48-1.86-38.25l13.37.65s9.78,21.6,4.87,68.29Z" transform="translate(0 -54.95)"/><path class="cls-9" d="M362.48,161l3.1,5.47s-3.22,21-8.4,28.36v-4.35l-20.06-23.13,3.6-5.56-9,1.78s-.84-8.45,1.84-13.6l.93-.22s10.84,8.83,23.09,36.94c0,0,.45-27.48-1.86-38.25,0,0,6.39,3.46,10.94,12.56Z" transform="translate(0 -54.95)"/><path class="cls-14" d="M326.07,193.66c-.77-5.7-1.6-12-2.38-18l3.19-1.63S329.74,185,326.07,193.66Z" transform="translate(0 -54.95)"/><path class="cls-14" d="M344.71,245.22l-17.44-2.33.75-14.64C333.35,230.84,342,236.28,344.71,245.22Z" transform="translate(0 -54.95)"/><path class="cls-8" d="M321.06,153s-21.35,31.89-19.24,49.69,28,46.8,28,46.8l8.25-5.13s-20.7-31.77-22.54-41.67c-1-5.32,11.34-28.61,11.34-28.61S326.05,158,321.06,153Z" transform="translate(0 -54.95)"/><path class="cls-19" d="M321.06,153s-21.35,31.89-19.24,49.69,28,46.8,28,46.8l8.25-5.13s-20.7-31.77-22.54-41.67c-1-5.32,11.34-28.61,11.34-28.61S326.05,158,321.06,153Z" transform="translate(0 -54.95)"/><polygon class="cls-6" points="388.06 120.21 389.98 93.99 407.05 95.17 409.07 86.77 413.2 88.49 404.56 119.1 388.06 120.21"/><polygon class="cls-18" points="388.06 120.21 389.98 93.99 407.05 95.17 409.07 86.77 413.2 88.49 404.56 119.1 388.06 120.21"/><polygon class="cls-6" points="384.57 123.99 390.9 96.82 408.04 96.82 414.11 87.03 409.1 116.09 403.03 122.45 384.57 123.99"/><polygon class="cls-14" points="408.04 96.82 403.03 122.45 409.1 116.09 414.11 87.03 408.04 96.82"/><path class="cls-15" d="M410.74,161.51s-2.89,1-3.29,2.68-1.05,12.26-1.05,12.26,4.48-1,5.14-3.43S410.74,161.51,410.74,161.51Z" transform="translate(0 -54.95)"/></g></g></svg>